<?xml version="1.0" encoding="utf-8"?>
<!-- Generator: Adobe Illustrator 21.0.0, SVG Export Plug-In . SVG Version: 6.00 Build 0)  -->
<svg version="1.1" xmlns="http://www.w3.org/2000/svg" xmlns:xlink="http://www.w3.org/1999/xlink" x="0px" y="0px"
	 viewBox="0 0 231.5 230" style="enable-background:new 0 0 231.5 230;" xml:space="preserve">
<style type="text/css">
	.st0{fill:#304960;}
	.st1{fill:#00BC7E;}
</style>
<path class="st0" d="M112.1,193.7c0,5.3-2.8,6.5-2.8,6.5s-47.6,27.5-50.7,29.2c-3.1,1.3-5.1,0-5.1,0S3.7,200.5,1.9,199.2
	S0,196,0,196s0.1-57.2,0-59.9c-0.1-2.6,3.3-4.6,3.3-4.6L53,102.7c3.1-1.6,6,0,6,0s44,25.6,48.8,28.3c4.8,2.3,4.2,7,4.2,7
	S112.1,188.7,112.1,193.7z M92.2,136.3c-11.4-6.6-22.8-13.2-34.2-19.8c0,0-2.3-1.3-4.7,0L14.2,139c0,0-2.6,1.6-2.6,3.6
	c0,2.1,0,46.9,0,46.9s0,1.5,1.5,2.5c1.4,1,40.5,23.6,40.5,23.6s1.6,1,4,0c2.4-1.3,39.8-22.9,39.8-22.9s2.2-0.9,2.2-5.1
	c0-1.2,0-5.9,0-11.7l-44,26.7v-10.2c0-4.2,3.2-7,3.2-7L97.9,162c1.5-1.5,1.8-4,1.8-4.9v-10.3l-44,26.7v-10.7c0-4.2,2.8-6,2.8-6
	L92.2,136.3L92.2,136.3z"/>
<path class="st0" d="M119.4,138c0,0-0.6-4.7,4.2-7c4.9-2.7,48.8-28.3,48.8-28.3s3-1.6,6,0l49.8,28.8c0,0,3.3,2,3.3,4.6
	c-0.1,2.7,0,59.9,0,59.9s0,2-1.9,3.3c-1.8,1.3-51.6,30.2-51.6,30.2s-2.1,1.3-5.1,0c-3.1-1.7-50.7-29.2-50.7-29.2s-2.8-1.2-2.8-6.5
	C119.4,188.7,119.4,138,119.4,138z M139.3,136.3l33.8,20.5c0,0,2.8,1.8,2.8,6v10.7l-44-26.7v10.3c0.1,0.9,0.4,3.4,1.8,4.9l38.9,23.5
	c0,0,3.2,2.8,3.2,7v10.2l-44-26.7c0,5.8,0,10.5,0,11.7c0,4.2,2.2,5.1,2.2,5.1s37.4,21.5,39.8,22.9c2.4,1,4,0,4,0S217,193,218.4,192
	s1.5-2.5,1.5-2.5s0-44.8,0-46.9c0-2.1-2.6-3.6-2.6-3.6l-39.1-22.5c-2.4-1.3-4.7,0-4.7,0C162.1,123.1,150.7,129.7,139.3,136.3
	L139.3,136.3z"/>
<path class="st1" d="M171.8,34.1c0,0-0.1-2-1.9-3.3c-1.8-1.3-51.6-30.2-51.6-30.2s-2-1.3-5.1,0c-3.1,1.7-50.7,29.2-50.7,29.2
	s-2.8,1.2-2.8,6.5c0,5,0,55.8,0,55.8s-0.6,4.7,4.2,7c4.8,2.7,48.8,28.3,48.8,28.3s2.9,1.6,6,0l49.8-28.8c0,0,3.4-2,3.3-4.6
	C171.7,91.3,171.8,34.1,171.8,34.1z M161.5,88.3c0,2.2-2.7,3.8-2.7,3.8l-40.6,23.4c-2.5,1.3-4.9,0-4.9,0s-35.8-20.8-39.8-23
	c-3.9-1.9-3.4-5.7-3.4-5.7s0-41.3,0-45.4c0-4.3,2.3-5.3,2.3-5.3s38.8-22.4,41.3-23.8c2.5-1.1,4.2,0,4.2,0s40.6,23.5,42.1,24.6
	c1.5,1.1,1.5,2.6,1.5,2.6S161.5,86.1,161.5,88.3z"/>
</svg>
